<svg width="18" height="17" viewBox="0 0 18 17" fill="none" xmlns="http://www.w3.org/2000/svg">
<path d="M5.51495 3.86646C5.24846 2.85079 4.52509 2.96211 4.03051 3.43516C2.81217 4.70124 1.22581 7.35866 2.24109 11.1852C3.09138 14.4269 6.62945 16.5 6.62945 16.5H2.505C2.505 16.5 0.375379 13.8147 0.185003 10.6565C-0.0561165 6.66348 1.36539 4.14517 3.01522 2.50348C4.5635 0.959115 6.03567 0.5 6.03567 0.5L9.04707 11.6L12.0585 0.5C12.0585 0.5 13.5306 0.959116 15.0789 2.50348C16.7288 4.14517 18.1503 6.66348 17.9091 10.6565C17.7188 13.8147 15.5891 16.5 15.5891 16.5H11.4647C11.4647 16.5 15.0025 14.4269 15.853 11.1852C16.8683 7.35909 15.282 4.70167 14.0636 3.43516C13.5687 2.96211 12.8453 2.85079 12.5792 3.86646C11.6654 7.1082 9.04744 16.3965 9.04744 16.3965C9.04744 16.3965 6.42945 7.1051 5.5157 3.86646H5.51495Z" fill="#634E3F"/>
</svg>
