<svg width="44" height="45" viewBox="0 0 44 45" fill="none" xmlns="http://www.w3.org/2000/svg">
<rect opacity="0.2" y="0.749023" width="44" height="44" rx="12" fill="white"/>
<path fill-rule="evenodd" clip-rule="evenodd" d="M22 13.7491C24.208 13.7491 26 15.5411 26 17.7491C26 19.9571 24.208 21.7491 22 21.7491C19.792 21.7491 18 19.9571 18 17.7491C18 15.5411 19.792 13.7491 22 13.7491ZM22 15.7491C23.104 15.7491 24 16.6451 24 17.7491C24 18.8531 23.104 19.7491 22 19.7491C20.896 19.7491 20 18.8531 20 17.7491C20 16.6451 20.896 15.7491 22 15.7491Z" fill="white"/>
<path fill-rule="evenodd" clip-rule="evenodd" d="M24 23.7489C26.208 23.7489 28 25.5409 28 27.7489V31.7489H26V27.7489C26 26.6449 25.104 25.7489 24 25.7489H20C18.896 25.7489 18 26.6449 18 27.7489V31.7489H16V27.7489C16 25.5409 17.792 23.7489 20 23.7489H24Z" fill="white"/>
</svg>
