<svg width="19" height="12" viewBox="0 0 19 12" fill="none" xmlns="http://www.w3.org/2000/svg">
<path d="M13.3106 0.792893C12.9201 0.402369 12.2869 0.402369 11.8964 0.792893C11.5059 1.18342 11.5059 1.81658 11.8964 2.20711L13.3106 0.792893ZM16.3964 6.70711C16.7869 7.09763 17.4201 7.09763 17.8106 6.70711C18.2011 6.31658 18.2011 5.68342 17.8106 5.29289L16.3964 6.70711ZM17.8106 6.70711C18.2011 6.31658 18.2011 5.68342 17.8106 5.29289C17.4201 4.90237 16.7869 4.90237 16.3964 5.29289L17.8106 6.70711ZM11.8964 9.79289C11.5059 10.1834 11.5059 10.8166 11.8964 11.2071C12.2869 11.5976 12.9201 11.5976 13.3106 11.2071L11.8964 9.79289ZM17.1035 7C17.6558 7 18.1035 6.55228 18.1035 6C18.1035 5.44772 17.6558 5 17.1035 5V7ZM1.10352 5C0.551231 5 0.103516 5.44772 0.103516 6C0.103516 6.55228 0.551231 7 1.10352 7V5ZM11.8964 2.20711L16.3964 6.70711L17.8106 5.29289L13.3106 0.792893L11.8964 2.20711ZM16.3964 5.29289L11.8964 9.79289L13.3106 11.2071L17.8106 6.70711L16.3964 5.29289ZM17.1035 5H1.10352V7H17.1035V5Z" fill="white"/>
</svg>
