<svg width="25" height="20" viewBox="0 0 25 20" fill="none" xmlns="http://www.w3.org/2000/svg">
<path d="M24.1035 8.05364V8.73221C24.1035 9.29436 23.6558 9.75006 23.1035 9.75006H22.7702L21.6821 17.5022C21.5414 18.5051 20.6976 19.25 19.7023 19.25H4.50477C3.50947 19.25 2.66564 18.5051 2.52485 17.5022L1.43685 9.75006H1.10352C0.551224 9.75006 0.103516 9.29436 0.103516 8.73221V8.05364C0.103516 7.49149 0.551224 7.03579 1.10352 7.03579H3.90939L8.35856 0.809047C8.79168 0.202917 9.62552 0.0688579 10.2211 0.509714C10.8166 0.950571 10.9483 1.79933 10.5152 2.4055L7.20672 7.03579H17.0003L13.6918 2.40546C13.2587 1.79933 13.3904 0.950529 13.986 0.509672C14.5814 0.0688155 15.4154 0.202833 15.8485 0.809005L20.2976 7.03579H23.1035C23.6558 7.03579 24.1035 7.49149 24.1035 8.05364ZM13.1035 15.5179V10.7679C13.1035 10.2058 12.6558 9.75006 12.1035 9.75006C11.5512 9.75006 11.1035 10.2058 11.1035 10.7679V15.5179C11.1035 16.08 11.5512 16.5357 12.1035 16.5357C12.6558 16.5357 13.1035 16.08 13.1035 15.5179ZM17.7702 15.5179V10.7679C17.7702 10.2058 17.3225 9.75006 16.7702 9.75006C16.2179 9.75006 15.7702 10.2058 15.7702 10.7679V15.5179C15.7702 16.08 16.2179 16.5357 16.7702 16.5357C17.3225 16.5357 17.7702 16.08 17.7702 15.5179ZM8.43685 15.5179V10.7679C8.43685 10.2058 7.98914 9.75006 7.43685 9.75006C6.88456 9.75006 6.43685 10.2058 6.43685 10.7679V15.5179C6.43685 16.08 6.88456 16.5357 7.43685 16.5357C7.98914 16.5357 8.43685 16.08 8.43685 15.5179Z" fill="#FF6B00"/>
</svg>
