<svg width="25" height="25" viewBox="0 0 25 25" fill="none" xmlns="http://www.w3.org/2000/svg">
<path fill-rule="evenodd" clip-rule="evenodd" d="M5.27371 18.3499C4.44365 18.3499 3.76856 17.6671 3.76856 16.8283V8.64056H18.2464V10.4787C18.7038 10.6377 19.1357 10.8485 19.5365 11.1068V6.85033C19.5365 5.29188 18.2823 4.02454 16.7413 4.02454H5.27371C3.73213 4.02454 2.47852 5.29246 2.47852 6.85033V16.828C2.47852 18.3865 3.73271 19.6538 5.27371 19.6538H11.1454C10.8863 19.2493 10.675 18.812 10.5145 18.3496H5.27371V18.3499ZM3.76859 6.85063C3.76859 6.01149 4.44396 5.32901 5.27373 5.32901H16.7416C17.5716 5.32901 18.2467 6.01178 18.2467 6.85063V7.33612H3.76859V6.85063ZM7.26284 10.5971H5.91902V11.9556H7.26284V10.5971ZM13.9681 10.5971H8.60696V11.9556H11.9454C12.5173 11.3749 13.2048 10.9119 13.9681 10.5971ZM7.26284 13.2057H5.91902V14.5643H7.26284V13.2057ZM8.60637 14.5645H10.4168C10.5568 14.0843 10.7545 13.6295 10.9997 13.206H8.60637V14.5645ZM10.9182 16.3089C10.9182 13.3271 13.3176 10.9017 16.2668 10.9017C19.2158 10.9017 21.6155 13.3271 21.6155 16.3089C21.6155 19.2908 19.2158 21.7162 16.2668 21.7162C13.3178 21.7162 10.9182 19.2908 10.9182 16.3089ZM16.2668 20.4117C14.0291 20.4117 12.2082 18.5715 12.2082 16.3087C12.2082 14.0458 14.0285 12.2056 16.2668 12.2056C18.5046 12.2056 20.3255 14.0458 20.3255 16.3087C20.3255 18.5715 18.5046 20.4117 16.2668 20.4117ZM15.5944 13.6406H16.9388V15.6293H18.927V16.9885H16.9388V17.0098H15.5944V16.9885V15.6293V13.6406Z" fill="white"/>
</svg>
